<?xml version="1.0" encoding="UTF-8"?>
<!DOCTYPE svg PUBLIC "-//W3C//DTD SVG 1.1//EN" "http://www.w3.org/Graphics/SVG/1.1/DTD/svg11.dtd">
<svg xmlns="http://www.w3.org/2000/svg" version="1.1" width="512px" height="512px" style="shape-rendering:geometricPrecision; text-rendering:geometricPrecision; image-rendering:optimizeQuality; fill-rule:evenodd; clip-rule:evenodd" xmlns:xlink="http://www.w3.org/1999/xlink">
<g><path style="opacity:0.984" fill="#010101" d="M 244.5,-0.5 C 251.833,-0.5 259.167,-0.5 266.5,-0.5C 278.699,2.2524 290.366,6.7524 301.5,13C 341.51,40.4784 371.01,76.6451 390,121.5C 398.951,141.25 402.617,161.917 401,183.5C 391.624,217.593 375.457,247.926 352.5,274.5C 362.421,276.984 372.421,279.151 382.5,281C 385.844,282.894 387.178,285.727 386.5,289.5C 385.146,293.839 382.146,295.839 377.5,295.5C 361.78,292.989 346.113,290.156 330.5,287C 317.991,284.064 305.991,285.397 294.5,291C 287.572,295.093 280.239,298.426 272.5,301C 318.668,301.832 364.668,301.665 410.5,300.5C 418.422,301.302 426.422,301.802 434.5,302C 442.889,305.271 446.889,311.437 446.5,320.5C 445.206,332.481 444.206,344.481 443.5,356.5C 438.404,394.273 434.07,432.273 430.5,470.5C 436.804,469.781 442.304,471.447 447,475.5C 453.948,459.939 460.615,444.272 467,428.5C 468.195,421.491 467.195,414.825 464,408.5C 458.333,398.833 452.667,389.167 447,379.5C 445.882,375.077 447.049,371.41 450.5,368.5C 453.93,368.107 457.096,368.773 460,370.5C 466.586,381.337 472.919,392.337 479,403.5C 482.303,412.903 483.303,422.569 482,432.5C 473.255,455.066 463.922,477.399 454,499.5C 450.546,504.794 446.046,508.794 440.5,511.5C 317.833,511.5 195.167,511.5 72.5,511.5C 67.6291,509.138 63.4624,505.804 60,501.5C 49.169,478.84 39.169,455.84 30,432.5C 28.6968,422.569 29.6968,412.903 33,403.5C 39.3333,392.5 45.6667,381.5 52,370.5C 54.9836,367.9 58.4836,366.9 62.5,367.5C 65.9509,370.41 67.1176,374.077 66,378.5C 57.9564,390.587 50.9564,403.254 45,416.5C 44.3333,420.5 44.3333,424.5 45,428.5C 51.1935,444.552 58.1935,460.218 66,475.5C 70.7687,471.522 76.2687,469.856 82.5,470.5C 78.9572,431.946 74.6239,393.612 69.5,355.5C 68.4965,343.301 67.1631,331.135 65.5,319C 66.098,310.41 70.4313,304.743 78.5,302C 86.5782,301.802 94.5782,301.302 102.5,300.5C 148.332,301.665 194.332,301.832 240.5,301C 228.27,295.717 215.937,290.717 203.5,286C 197.5,285.333 191.5,285.333 185.5,286C 168.893,289.485 152.227,292.652 135.5,295.5C 130.873,295.702 127.873,293.702 126.5,289.5C 125.822,285.727 127.156,282.894 130.5,281C 140.221,279.023 149.887,276.856 159.5,274.5C 133.378,245.422 116.711,211.588 109.5,173C 111.892,146.155 119.726,120.989 133,97.5C 147.006,72.6978 164.506,50.5311 185.5,31C 202.691,15.7397 222.357,5.23967 244.5,-0.5 Z"/></g>
<g><path style="opacity:1" fill="#120b1b" d="M 248.5,15.5 C 264.146,13.9369 278.813,17.4369 292.5,26C 322.562,46.0626 346.395,71.896 364,103.5C 373.295,119.889 380.128,137.222 384.5,155.5C 384.167,156.5 383.833,157.5 383.5,158.5C 373.821,153.5 363.821,149.5 353.5,146.5C 338.924,100.488 313.257,61.9879 276.5,31C 271.442,26.9429 266.108,23.2762 260.5,20C 256.781,17.6361 252.781,16.1361 248.5,15.5 Z"/></g>
<g><path style="opacity:1" fill="#190e24" d="M 248.5,15.5 C 252.781,16.1361 256.781,17.6361 260.5,20C 266.108,23.2762 271.442,26.9429 276.5,31C 313.257,61.9879 338.924,100.488 353.5,146.5C 311.497,135.822 268.831,131.989 225.5,135C 196.785,137.179 168.785,142.846 141.5,152C 136.802,153.766 132.302,155.933 128,158.5C 127.834,152.327 128.834,146.327 131,140.5C 146.789,96.7275 172.956,60.5608 209.5,32C 215.702,28.067 222.035,24.4004 228.5,21C 234.869,18.043 241.536,16.2097 248.5,15.5 Z"/></g>
<g><path style="opacity:1" fill="#f9dfc0" d="M 298.5,151.5 C 299.651,167.759 299.817,184.093 299,200.5C 295.681,212.139 290.014,222.473 282,231.5C 272.436,241.734 262.269,251.234 251.5,260C 250.207,260.49 248.873,260.657 247.5,260.5C 243.342,259.502 239.342,258.002 235.5,256C 217.711,244.544 202.877,230.044 191,212.5C 188.938,208.312 187.271,203.979 186,199.5C 185.5,184.837 185.333,170.17 185.5,155.5C 222.968,149.141 260.635,147.807 298.5,151.5 Z"/></g>
<g><path style="opacity:1" fill="#eccdad" d="M 298.5,151.5 C 308.132,153.019 317.799,154.352 327.5,155.5C 327.667,169.171 327.5,182.837 327,196.5C 325.068,206.696 320.735,215.696 314,223.5C 303.998,234.922 292.832,245.089 280.5,254C 275.401,256.883 270.067,259.217 264.5,261C 258.651,261.818 252.985,261.652 247.5,260.5C 248.873,260.657 250.207,260.49 251.5,260C 262.269,251.234 272.436,241.734 282,231.5C 290.014,222.473 295.681,212.139 299,200.5C 299.817,184.093 299.651,167.759 298.5,151.5 Z"/></g>
<g><path style="opacity:1" fill="#e1c4a5" d="M 166.5,159.5 C 167.833,159.5 169.167,159.5 170.5,159.5C 170.83,166.2 170.497,172.866 169.5,179.5C 168.201,178.91 167.368,177.91 167,176.5C 165.981,172.036 165.148,167.536 164.5,163C 164.862,161.566 165.528,160.399 166.5,159.5 Z"/></g>
<g><path style="opacity:1" fill="#f0d7b9" d="M 342.5,159.5 C 344.435,160.15 346.435,160.483 348.5,160.5C 347.669,165.487 346.836,170.487 346,175.5C 345.623,176.942 344.79,177.942 343.5,178.5C 342.51,172.355 342.177,166.022 342.5,159.5 Z"/></g>
<g><path style="opacity:1" fill="#120a1a" d="M 148.5,165.5 C 150.219,170.242 151.386,175.242 152,180.5C 155.163,189.166 161.33,193.833 170.5,194.5C 171.784,209.862 177.617,223.195 188,234.5C 193.333,239.833 198.667,245.167 204,250.5C 204.5,257.158 204.666,263.825 204.5,270.5C 195.774,270.424 187.108,270.591 178.5,271C 152.778,245.404 135.445,214.904 126.5,179.5C 128.607,176.564 131.274,174.064 134.5,172C 139.227,169.715 143.893,167.548 148.5,165.5 Z"/></g>
<g><path style="opacity:1" fill="#120a1a" d="M 363.5,166.5 C 372.338,168.348 379.671,172.682 385.5,179.5C 376.32,214.796 358.987,245.296 333.5,271C 324.892,270.591 316.226,270.424 307.5,270.5C 307.334,264.158 307.5,257.825 308,251.5C 318.127,241.713 327.127,231.046 335,219.5C 339.358,211.736 341.691,203.403 342,194.5C 348.962,194.299 354.295,191.299 358,185.5C 360.611,179.372 362.444,173.039 363.5,166.5 Z"/></g>
<g><path style="opacity:1" fill="#5f5549" d="M 342.5,159.5 C 342.177,166.022 342.51,172.355 343.5,178.5C 343.44,179.043 343.107,179.376 342.5,179.5C 341.182,172.678 341.182,166.011 342.5,159.5 Z"/></g>
<g><path style="opacity:1" fill="#efd6b9" d="M 265.5,276.5 C 265.5,279.833 265.5,283.167 265.5,286.5C 262.536,287.764 259.37,288.764 256,289.5C 243.518,286.506 231.685,281.839 220.5,275.5C 219.341,271.878 219.175,268.211 220,264.5C 233.43,274.817 248.596,278.817 265.5,276.5 Z"/></g>
<g><path style="opacity:1" fill="#e7c9a9" d="M 265.5,286.5 C 265.5,283.167 265.5,279.833 265.5,276.5C 274.77,274.615 283.27,270.948 291,265.5C 291.825,269.211 291.659,272.878 290.5,276.5C 282.698,281.237 274.365,284.57 265.5,286.5 Z"/></g>
<g><path style="opacity:1" fill="#1a0f25" d="M 102.5,300.5 C 103.543,297.944 105.21,295.777 107.5,294C 113.657,291.711 119.991,290.211 126.5,289.5C 127.873,293.702 130.873,295.702 135.5,295.5C 152.227,292.652 168.893,289.485 185.5,286C 191.5,285.333 197.5,285.333 203.5,286C 215.937,290.717 228.27,295.717 240.5,301C 194.332,301.832 148.332,301.665 102.5,300.5 Z"/></g>
<g><path style="opacity:1" fill="#160d1f" d="M 386.5,289.5 C 392.293,290.021 397.96,291.188 403.5,293C 406.739,294.736 409.073,297.236 410.5,300.5C 364.668,301.665 318.668,301.832 272.5,301C 280.239,298.426 287.572,295.093 294.5,291C 305.991,285.397 317.991,284.064 330.5,287C 346.113,290.156 361.78,292.989 377.5,295.5C 382.146,295.839 385.146,293.839 386.5,289.5 Z"/></g>
<g><path style="opacity:1" fill="#ececec" d="M 82.5,317.5 C 189.5,317.5 296.5,317.5 403.5,317.5C 397.726,368.464 392.393,419.464 387.5,470.5C 290.833,470.5 194.167,470.5 97.5,470.5C 92.7307,420.78 87.3974,371.113 81.5,321.5C 81.5108,319.955 81.8442,318.622 82.5,317.5 Z"/></g>
<g><path style="opacity:1" fill="#d0d0d0" d="M 82.5,317.5 C 198.333,316.334 314.333,316.167 430.5,317C 431.059,317.725 431.392,318.558 431.5,319.5C 425.727,369.788 420.394,420.122 415.5,470.5C 406.167,470.5 396.833,470.5 387.5,470.5C 392.393,419.464 397.726,368.464 403.5,317.5C 296.5,317.5 189.5,317.5 82.5,317.5 Z"/></g>
<g><path style="opacity:1" fill="#040303" d="M 248.5,333.5 C 272.036,332.096 285.036,343.096 287.5,366.5C 288.48,367.981 289.647,369.315 291,370.5C 292.667,368.833 294.333,367.167 296,365.5C 297.392,358.738 299.059,352.071 301,345.5C 307.309,340.728 311.809,342.062 314.5,349.5C 313.319,356.572 311.819,363.572 310,370.5C 307.027,376.64 302.527,381.306 296.5,384.5C 295.534,386.396 295.201,388.396 295.5,390.5C 301.509,390.334 307.509,390.501 313.5,391C 317.212,393.513 318.378,397.013 317,401.5C 315.786,403.049 314.286,404.215 312.5,405C 306.843,405.499 301.176,405.666 295.5,405.5C 295.238,406.978 295.571,408.311 296.5,409.5C 303.593,412.761 308.426,418.094 311,425.5C 312.327,430.961 313.494,436.461 314.5,442C 312.834,450.946 308.334,452.779 301,447.5C 299.543,441.887 298.21,436.22 297,430.5C 296.163,428.156 294.829,426.156 293,424.5C 288.285,436.547 280.119,445.381 268.5,451C 250.266,456.472 235.766,451.305 225,435.5C 222.731,431.962 220.731,428.295 219,424.5C 217.171,426.156 215.837,428.156 215,430.5C 213.772,436.208 212.439,441.875 211,447.5C 207.341,451.115 203.341,451.448 199,448.5C 198.042,446.801 197.542,444.967 197.5,443C 198.49,436.052 199.99,429.218 202,422.5C 205.028,416.639 209.528,412.306 215.5,409.5C 216.429,408.311 216.762,406.978 216.5,405.5C 210.824,405.666 205.157,405.499 199.5,405C 194.311,402.087 193.144,397.92 196,392.5C 196.75,391.874 197.584,391.374 198.5,391C 204.491,390.501 210.491,390.334 216.5,390.5C 216.799,388.396 216.466,386.396 215.5,384.5C 209.137,381.637 204.637,376.97 202,370.5C 199.99,363.783 198.49,356.949 197.5,350C 199.873,342.125 204.373,340.625 211,345.5C 212.758,352.127 214.425,358.794 216,365.5C 218.631,370.903 221.297,371.236 224,366.5C 224.907,349.988 233.074,338.988 248.5,333.5 Z"/></g>
<g><path style="opacity:1" fill="#804343" d="M 251.5,348.5 C 259.61,347.584 265.943,350.417 270.5,357C 260.833,357.667 251.167,357.667 241.5,357C 243.934,352.972 247.267,350.139 251.5,348.5 Z"/></g>
<g><path style="opacity:1" fill="#190f24" d="M 69.5,355.5 C 74.6239,393.612 78.9572,431.946 82.5,470.5C 76.2687,469.856 70.7687,471.522 66,475.5C 58.1935,460.218 51.1935,444.552 45,428.5C 44.3333,424.5 44.3333,420.5 45,416.5C 50.9564,403.254 57.9564,390.587 66,378.5C 67.1176,374.077 65.9509,370.41 62.5,367.5C 64.8333,363.5 67.1667,359.5 69.5,355.5 Z"/></g>
<g><path style="opacity:1" fill="#150d1e" d="M 443.5,356.5 C 445.848,360.535 448.182,364.535 450.5,368.5C 447.049,371.41 445.882,375.077 447,379.5C 452.667,389.167 458.333,398.833 464,408.5C 467.195,414.825 468.195,421.491 467,428.5C 460.615,444.272 453.948,459.939 447,475.5C 442.304,471.447 436.804,469.781 430.5,470.5C 434.07,432.273 438.404,394.273 443.5,356.5 Z"/></g>
<g><path style="opacity:1" fill="#cd3634" d="M 240.5,372.5 C 250.839,372.334 261.172,372.5 271.5,373C 274.412,373.845 275.412,375.512 274.5,378C 262.167,378.667 249.833,378.667 237.5,378C 236.549,377.282 236.383,376.449 237,375.5C 238.145,374.364 239.312,373.364 240.5,372.5 Z"/></g>
<g><path style="opacity:1" fill="#f03a43" d="M 231.5,392.5 C 237.106,393.407 242.773,393.74 248.5,393.5C 248.833,407.849 248.499,422.182 247.5,436.5C 239.005,431.156 233.838,423.489 232,413.5C 231.5,406.508 231.334,399.508 231.5,392.5 Z"/></g>
<g><path style="opacity:1" fill="#ef3943" d="M 277.5,392.5 C 278.5,392.5 279.5,392.5 280.5,392.5C 282.751,406.413 279.918,419.08 272,430.5C 269.591,432.62 267.091,434.62 264.5,436.5C 263.501,422.182 263.167,407.849 263.5,393.5C 268.363,393.819 273.03,393.486 277.5,392.5 Z"/></g>
<g><path style="opacity:1" fill="#d5d5d5" d="M 77.5,486.5 C 187.833,486.5 298.167,486.5 408.5,486.5C 408.5,489.5 408.5,492.5 408.5,495.5C 356.664,495.168 304.997,495.501 253.5,496.5C 194.5,496.5 135.5,496.5 76.5,496.5C 76.1872,492.958 76.5206,489.625 77.5,486.5 Z"/></g>
<g><path style="opacity:1" fill="#b9b9b9" d="M 77.5,486.5 C 196.666,485.334 315.999,485.167 435.5,486C 436.833,489.333 436.833,492.667 435.5,496C 374.834,496.5 314.168,496.667 253.5,496.5C 304.997,495.501 356.664,495.168 408.5,495.5C 408.5,492.5 408.5,489.5 408.5,486.5C 298.167,486.5 187.833,486.5 77.5,486.5 Z"/></g>
</svg>
